<svg xmlns="http://www.w3.org/2000/svg" width="19" height="16" viewBox="0 0 19 16" fill="none">
  <path d="M0.177343 8.43571L7.45414 15.8345C7.5691 15.9434 7.72114 16.0027 7.87824 15.9999C8.03534 15.9971 8.18523 15.9324 8.29633 15.8194C8.40743 15.7064 8.47107 15.554 8.47385 15.3943C8.47662 15.2346 8.4183 15.08 8.31119 14.9631L2.07032 8.61657H18.3936C18.5544 8.61657 18.7087 8.55161 18.8224 8.43598C18.9361 8.32035 19 8.16352 19 8C19 7.83648 18.9361 7.67965 18.8224 7.56402C18.7087 7.44839 18.5544 7.38343 18.3936 7.38343H2.07032L8.31119 1.0369C8.4183 0.920015 8.47662 0.765424 8.47385 0.605691C8.47107 0.445958 8.40743 0.293554 8.29633 0.180588C8.18523 0.0676225 8.03534 0.00291436 7.87824 9.60591e-05C7.72114 -0.00272224 7.5691 0.0565693 7.45414 0.16548L0.177343 7.56429C0.0637837 7.6799 -6.20992e-07 7.83661 -6.20992e-07 8C-6.20992e-07 8.16339 0.0637837 8.3201 0.177343 8.43571Z" fill="#111913"/>
</svg>