<svg xmlns="http://www.w3.org/2000/svg" width="29" height="24" viewBox="0 0 29 24" fill="none">
  <path d="M0.270682 12.6536L11.3774 23.7518C11.5528 23.9151 11.7849 24.0041 12.0247 23.9999C12.2645 23.9956 12.4932 23.8986 12.6628 23.7291C12.8324 23.5597 12.9295 23.3311 12.9338 23.0915C12.938 22.8519 12.849 22.62 12.6855 22.4447L3.15997 12.9249H28.0744C28.3199 12.9249 28.5553 12.8274 28.7289 12.654C28.9025 12.4805 29 12.2453 29 12C29 11.7547 28.9025 11.5195 28.7289 11.346C28.5553 11.1726 28.3199 11.0751 28.0744 11.0751H3.15997L12.6855 1.55534C12.849 1.38002 12.938 1.14814 12.9338 0.908536C12.9295 0.668937 12.8324 0.440331 12.6628 0.270883C12.4932 0.101434 12.2645 0.00437154 12.0247 0.000144089C11.7849 -0.00408337 11.5528 0.084854 11.3774 0.24822L0.270682 11.3464C0.0973549 11.5198 -1.36916e-07 11.7549 -1.36916e-07 12C-1.36916e-07 12.2451 0.0973549 12.4802 0.270682 12.6536Z" fill="#111913"/>
</svg>