<svg xmlns="http://www.w3.org/2000/svg" width="52" height="46" viewBox="0 0 52 46" fill="none">
  <path d="M47.84 8.36364H6.24C5.68835 8.36364 5.15929 8.14334 4.76922 7.75122C4.37914 7.3591 4.16 6.82727 4.16 6.27273C4.16 5.71818 4.37914 5.18635 4.76922 4.79423C5.15929 4.40211 5.68835 4.18182 6.24 4.18182H41.6C42.1516 4.18182 42.6807 3.96153 43.0708 3.5694C43.4609 3.17728 43.68 2.64545 43.68 2.09091C43.68 1.53637 43.4609 1.00453 43.0708 0.612413C42.6807 0.220292 42.1516 0 41.6 0H6.24C4.58505 0 2.99788 0.660875 1.82765 1.83724C0.657427 3.0136 0 4.6091 0 6.27273V39.7273C0 41.3909 0.657427 42.9864 1.82765 44.1628C2.99788 45.3391 4.58505 46 6.24 46H47.84C48.9433 46 50.0014 45.5594 50.7816 44.7752C51.5617 43.9909 52 42.9273 52 41.8182V12.5455C52 11.4364 51.5617 10.3727 50.7816 9.58846C50.0014 8.80422 48.9433 8.36364 47.84 8.36364ZM38.48 29.2727C37.8629 29.2727 37.2597 29.0888 36.7466 28.7442C36.2335 28.3995 35.8336 27.9097 35.5975 27.3366C35.3614 26.7635 35.2996 26.1329 35.4199 25.5245C35.5403 24.9161 35.8375 24.3572 36.2738 23.9186C36.7102 23.48 37.2661 23.1813 37.8713 23.0603C38.4765 22.9392 39.1039 23.0014 39.674 23.2387C40.2441 23.4761 40.7314 23.8781 41.0742 24.3939C41.417 24.9097 41.6 25.516 41.6 26.1364C41.6 26.9682 41.2713 27.7659 40.6862 28.3541C40.1011 28.9423 39.3075 29.2727 38.48 29.2727Z" fill="#40AE65"/>
</svg>