<svg xmlns="http://www.w3.org/2000/svg" width="43" height="55" viewBox="0 0 43 55" fill="none">
  <rect x="9" y="9" width="27" height="27" fill="white"/>
  <path d="M21.5 0C15.7998 0.00649874 10.335 2.28507 6.30435 6.33583C2.27371 10.3866 0.00646645 15.8787 0 21.6074C0 40.0964 19.5455 54.0601 20.3786 54.6445C20.7072 54.8759 21.0987 55 21.5 55C21.9013 55 22.2928 54.8759 22.6214 54.6445C23.4545 54.0601 43 40.0964 43 21.6074C42.9935 15.8787 40.7263 10.3866 36.6957 6.33583C32.665 2.28507 27.2002 0.00649874 21.5 0ZM21.5 13.7501C23.0463 13.7501 24.5579 14.211 25.8435 15.0743C27.1292 15.9377 28.1313 17.1648 28.7231 18.6005C29.3148 20.0362 29.4696 21.6161 29.168 23.1402C28.8663 24.6644 28.1217 26.0644 27.0283 27.1633C25.9349 28.2621 24.5418 29.0104 23.0253 29.3136C21.5087 29.6168 19.9367 29.4612 18.5081 28.8665C17.0795 28.2718 15.8585 27.2647 14.9994 25.9726C14.1403 24.6805 13.6818 23.1614 13.6818 21.6074C13.6818 19.5235 14.5055 17.525 15.9717 16.0515C17.4379 14.5779 19.4265 13.7501 21.5 13.7501Z" fill="#40AE65"/>
</svg>