<svg xmlns="http://www.w3.org/2000/svg" width="30" height="30" viewBox="0 0 30 30" fill="none">
  <path d="M29.2672 12.7022L16.7672 0.702379C16.2984 0.252637 15.6628 0 15 0C14.3372 0 13.7016 0.252637 13.2328 0.702379L0.732827 12.7022C0.499553 12.9245 0.314638 13.1891 0.188833 13.4806C0.063029 13.7721 -0.00115415 14.0847 1.57086e-05 14.4002V28.8C1.57086e-05 29.1183 0.131712 29.4235 0.366132 29.6485C0.600552 29.8736 0.918494 30 1.25001 30H11.25C11.5815 30 11.8995 29.8736 12.1339 29.6485C12.3683 29.4235 12.5 29.1183 12.5 28.8V20.4001H17.5V28.8C17.5 29.1183 17.6317 29.4235 17.8661 29.6485C18.1005 29.8736 18.4185 30 18.75 30H28.75C29.0815 30 29.3994 29.8736 29.6339 29.6485C29.8683 29.4235 30 29.1183 30 28.8V14.4002C30.0012 14.0847 29.937 13.7721 29.8112 13.4806C29.6854 13.1891 29.5004 12.9245 29.2672 12.7022ZM27.5 27.6H20V19.2001C20 18.8819 19.8683 18.5767 19.6339 18.3516C19.3995 18.1266 19.0815 18.0002 18.75 18.0002H11.25C10.9185 18.0002 10.6005 18.1266 10.3661 18.3516C10.1317 18.5767 10 18.8819 10 19.2001V27.6H2.50001V14.4002L15 2.40036L27.5 14.4002V27.6Z" fill="white"/>
</svg>