<svg xmlns="http://www.w3.org/2000/svg" width="27" height="20" viewBox="0 0 27 20" fill="none">
  <path d="M7.56 1.57895C7.56 1.16018 7.73068 0.758573 8.03449 0.462463C8.3383 0.166353 8.75035 0 9.18 0H25.38C25.8097 0 26.2217 0.166353 26.5255 0.462463C26.8293 0.758573 27 1.16018 27 1.57895C27 1.99771 26.8293 2.39932 26.5255 2.69543C26.2217 2.99154 25.8097 3.15789 25.38 3.15789H9.18C8.75035 3.15789 8.3383 2.99154 8.03449 2.69543C7.73068 2.39932 7.56 1.99771 7.56 1.57895ZM25.38 8.42105H9.18C8.75035 8.42105 8.3383 8.58741 8.03449 8.88352C7.73068 9.17963 7.56 9.58124 7.56 10C7.56 10.4188 7.73068 10.8204 8.03449 11.1165C8.3383 11.4126 8.75035 11.5789 9.18 11.5789H25.38C25.8097 11.5789 26.2217 11.4126 26.5255 11.1165C26.8293 10.8204 27 10.4188 27 10C27 9.58124 26.8293 9.17963 26.5255 8.88352C26.2217 8.58741 25.8097 8.42105 25.38 8.42105ZM25.38 16.8421H9.18C8.75035 16.8421 8.3383 17.0085 8.03449 17.3046C7.73068 17.6007 7.56 18.0023 7.56 18.4211C7.56 18.8398 7.73068 19.2414 8.03449 19.5375C8.3383 19.8336 8.75035 20 9.18 20H25.38C25.8097 20 26.2217 19.8336 26.5255 19.5375C26.8293 19.2414 27 18.8398 27 18.4211C27 18.0023 26.8293 17.6007 26.5255 17.3046C26.2217 17.0085 25.8097 16.8421 25.38 16.8421ZM3.78 0H1.62C1.19035 0 0.778296 0.166353 0.474487 0.462463C0.170678 0.758573 0 1.16018 0 1.57895C0 1.99771 0.170678 2.39932 0.474487 2.69543C0.778296 2.99154 1.19035 3.15789 1.62 3.15789H3.78C4.20965 3.15789 4.6217 2.99154 4.92551 2.69543C5.22932 2.39932 5.4 1.99771 5.4 1.57895C5.4 1.16018 5.22932 0.758573 4.92551 0.462463C4.6217 0.166353 4.20965 0 3.78 0ZM3.78 8.42105H1.62C1.19035 8.42105 0.778296 8.58741 0.474487 8.88352C0.170678 9.17963 0 9.58124 0 10C0 10.4188 0.170678 10.8204 0.474487 11.1165C0.778296 11.4126 1.19035 11.5789 1.62 11.5789H3.78C4.20965 11.5789 4.6217 11.4126 4.92551 11.1165C5.22932 10.8204 5.4 10.4188 5.4 10C5.4 9.58124 5.22932 9.17963 4.92551 8.88352C4.6217 8.58741 4.20965 8.42105 3.78 8.42105ZM3.78 16.8421H1.62C1.19035 16.8421 0.778296 17.0085 0.474487 17.3046C0.170678 17.6007 0 18.0023 0 18.4211C0 18.8398 0.170678 19.2414 0.474487 19.5375C0.778296 19.8336 1.19035 20 1.62 20H3.78C4.20965 20 4.6217 19.8336 4.92551 19.5375C5.22932 19.2414 5.4 18.8398 5.4 18.4211C5.4 18.0023 5.22932 17.6007 4.92551 17.3046C4.6217 17.0085 4.20965 16.8421 3.78 16.8421Z" fill="#111913"/>
</svg>